<?xml version="1.0" encoding="UTF-8" standalone="no"?>
<!DOCTYPE svg PUBLIC "-//W3C//DTD SVG 1.1//EN"
 "http://www.w3.org/Graphics/SVG/1.1/DTD/svg11.dtd">
<!-- Generated by graphviz version 2.47.0 (20210316.0004)
 -->
<!-- Title: dependencies Pages: 1 -->
<svg width="504pt" height="284pt"
 viewBox="0.00 0.00 504.00 284.00" xmlns="http://www.w3.org/2000/svg" xmlns:xlink="http://www.w3.org/1999/xlink">
<g id="graph0" class="graph" transform="scale(1 1) rotate(0) translate(4 280)">
<title>dependencies</title>
<polygon fill="white" stroke="transparent" points="-4,4 -4,-280 500,-280 500,4 -4,4"/>
<text text-anchor="start" x="227.01" y="-42.4" font-family="Times-12" font-weight="bold" font-size="14.00">Legend</text>
<polygon fill="#ffffb3" stroke="transparent" points="14,-10 14,-30 34,-30 34,-10 14,-10"/>
<text text-anchor="start" x="37.63" y="-15.4" font-family="Times-12" font-size="14.00"> &#160;Declarations</text>
<polygon fill="#8dd3c7" stroke="transparent" points="127,-10 127,-30 147,-30 147,-10 127,-10"/>
<text text-anchor="start" x="150.73" y="-15.4" font-family="Times-12" font-size="14.00"> &#160;Module</text>
<polygon fill="#80b1d3" stroke="transparent" points="213,-10 213,-30 233,-30 233,-10 213,-10"/>
<text text-anchor="start" x="236.78" y="-15.4" font-family="Times-12" font-size="14.00"> &#160;Bootstrap</text>
<polygon fill="#fdb462" stroke="transparent" points="310,-10 310,-30 330,-30 330,-10 310,-10"/>
<text text-anchor="start" x="333.67" y="-15.4" font-family="Times-12" font-size="14.00"> &#160;Providers</text>
<polygon fill="#fb8072" stroke="transparent" points="406,-10 406,-30 426,-30 426,-10 406,-10"/>
<text text-anchor="start" x="429.73" y="-15.4" font-family="Times-12" font-size="14.00"> &#160;Exports</text>
<g id="clust1" class="cluster">
<title>cluster_AppModule</title>
<polygon fill="none" stroke="black" stroke-dasharray="1,5" points="84,-70 84,-195 230,-195 230,-70 84,-70"/>
</g>
<g id="clust6" class="cluster">
<title>cluster_AppModule_providers</title>
<polygon fill="none" stroke="black" points="92,-78 92,-130 222,-130 222,-78 92,-78"/>
</g>
<g id="clust7" class="cluster">
<title>cluster_DomainModule</title>
<polygon fill="none" stroke="black" stroke-dasharray="1,5" points="238,-70 238,-268 412,-268 412,-70 238,-70"/>
</g>
<g id="clust10" class="cluster">
<title>cluster_DomainModule_exports</title>
<polygon fill="none" stroke="black" points="264,-208 264,-260 386,-260 386,-208 264,-208"/>
</g>
<g id="clust12" class="cluster">
<title>cluster_DomainModule_providers</title>
<polygon fill="none" stroke="black" points="246,-78 246,-130 404,-130 404,-78 246,-78"/>
</g>
<!-- AppService -->
<g id="node1" class="node">
<title>AppService</title>
<ellipse fill="#fdb462" stroke="black" cx="157" cy="-104" rx="56.74" ry="18"/>
<text text-anchor="middle" x="157" y="-99.8" font-family="Times,serif" font-size="14.00">AppService</text>
</g>
<!-- AppModule -->
<g id="node2" class="node">
<title>AppModule</title>
<polygon fill="#8dd3c7" stroke="black" points="198.66,-187 195.66,-191 174.66,-191 171.66,-187 115.34,-187 115.34,-151 198.66,-151 198.66,-187"/>
<text text-anchor="middle" x="157" y="-164.8" font-family="Times,serif" font-size="14.00">AppModule</text>
</g>
<!-- AppService&#45;&gt;AppModule -->
<g id="edge1" class="edge">
<title>AppService&#45;&gt;AppModule</title>
<path fill="none" stroke="black" d="M157,-122.11C157,-122.11 157,-140.99 157,-140.99"/>
<polygon fill="black" stroke="black" points="153.5,-140.99 157,-150.99 160.5,-140.99 153.5,-140.99"/>
</g>
<!-- DomainService  -->
<g id="node3" class="node">
<title>DomainService </title>
<polygon fill="#fb8072" stroke="black" points="378.08,-252 271.92,-252 271.92,-216 378.08,-216 378.08,-252"/>
<text text-anchor="middle" x="325" y="-229.8" font-family="Times,serif" font-size="14.00">DomainService </text>
</g>
<!-- DomainModule -->
<g id="node4" class="node">
<title>DomainModule</title>
<polygon fill="#8dd3c7" stroke="black" points="377.15,-187 374.15,-191 353.15,-191 350.15,-187 272.85,-187 272.85,-151 377.15,-151 377.15,-187"/>
<text text-anchor="middle" x="325" y="-164.8" font-family="Times,serif" font-size="14.00">DomainModule</text>
</g>
<!-- DomainModule&#45;&gt;DomainService  -->
<g id="edge2" class="edge">
<title>DomainModule&#45;&gt;DomainService </title>
<path fill="none" stroke="black" stroke-dasharray="5,2" d="M325,-187.11C325,-187.11 325,-205.99 325,-205.99"/>
<polygon fill="black" stroke="black" points="321.5,-205.99 325,-215.99 328.5,-205.99 321.5,-205.99"/>
</g>
<!-- DomainService -->
<g id="node5" class="node">
<title>DomainService</title>
<ellipse fill="#fdb462" stroke="black" cx="325" cy="-104" rx="71.21" ry="18"/>
<text text-anchor="middle" x="325" y="-99.8" font-family="Times,serif" font-size="14.00">DomainService</text>
</g>
<!-- DomainService&#45;&gt;DomainModule -->
<g id="edge3" class="edge">
<title>DomainService&#45;&gt;DomainModule</title>
<path fill="none" stroke="black" d="M325,-122.11C325,-122.11 325,-140.99 325,-140.99"/>
<polygon fill="black" stroke="black" points="321.5,-140.99 325,-150.99 328.5,-140.99 321.5,-140.99"/>
</g>
</g>
</svg>
